<svg data-v-fde0c5aa="" xmlns="http://www.w3.org/2000/svg" viewBox="0 0 300 300" class="font"><!----><defs data-v-fde0c5aa=""><!----></defs><rect data-v-fde0c5aa="" fill="#FCF2F7" x="0" y="0" width="300px" height="300px" class="logo-background-square"></rect><defs data-v-fde0c5aa=""><linearGradient data-v-fde0c5aa="" gradientTransform="rotate(25)" id="8392e615-cb78-4856-b352-c2ae9687eb18" x1="0%" y1="0%" x2="100%" y2="0%"><stop data-v-fde0c5aa="" offset="0%" stop-color="#D418EA" stop-opacity="1"></stop><stop data-v-fde0c5aa="" offset="100%" stop-color="#ECD062" stop-opacity="1"></stop></linearGradient></defs><g data-v-fde0c5aa="" id="50a25586-7b85-46af-9d16-a12b6e8bdcac" fill="url(#8392e615-cb78-4856-b352-c2ae9687eb18)" transform="matrix(6.303725341778862,0,0,6.303725341778862,36.91117452241135,44.12892939803746)"><path d="M5.80 19.88L5.24 21L0.49 21L0.49 20.01L1.74 18.91L1.74 16.18L0.49 15.37L0.49 14.38L3.44 13.13L4.54 13.13L4.54 19.49L5.80 19.88ZM3.15 8.89L3.15 8.89Q3.85 8.89 4.30 9.32L4.30 9.32L4.30 9.32Q4.76 9.76 4.76 10.40L4.76 10.40L4.76 10.40Q4.76 10.85 4.43 11.24L4.43 11.24L4.43 11.24Q4.10 11.63 3.61 11.87L3.61 11.87L3.61 11.87Q3.12 12.11 2.66 12.11L2.66 12.11L2.66 12.11Q1.97 12.11 1.51 11.68L1.51 11.68L1.51 11.68Q1.05 11.24 1.05 10.61L1.05 10.61L1.05 10.61Q1.05 10.16 1.38 9.77L1.38 9.77L1.38 9.77Q1.71 9.37 2.20 9.13L2.20 9.13L2.20 9.13Q2.69 8.89 3.15 8.89L3.15 8.89ZM12.26 15.50L12.26 15.50Q12.89 15.50 13.26 14.98L13.26 14.98L13.26 14.98Q13.62 14.46 13.62 13.55L13.62 13.55L13.62 13.55Q13.62 12.57 13.15 11.95L13.15 11.95L13.15 11.95Q12.68 11.33 11.77 11.33L11.77 11.33L11.77 11.33Q11.23 11.33 10.75 11.65L10.75 11.65L10.75 19.39L13.34 19.88L12.78 21L6.43 21L6.43 20.01L7.74 18.97L7.74 11.59L6.15 11.12L6.71 10.00L9.45 10.00L9.45 10.00Q10.63 10.00 11.77 9.91L11.77 9.91L11.77 9.91Q12.61 9.86 13.01 9.86L13.01 9.86L13.01 9.86Q14.15 9.86 15.04 10.29L15.04 10.29L15.04 10.29Q15.93 10.72 16.42 11.48L16.42 11.48L16.42 11.48Q16.91 12.24 16.91 13.16L16.91 13.16L16.91 13.16Q16.91 14.17 16.11 15.07L16.11 15.07L16.11 15.07Q15.30 15.97 14.08 16.48L14.08 16.48L14.08 16.48Q12.85 17.00 11.72 16.94L11.72 16.94L11.13 16.60L11.69 15.48L12.26 15.48L12.26 15.50ZM26.22 19.88L25.66 21L22.16 21L22.16 19.78L20.58 21.03L20.58 21.03Q20.30 21.14 19.88 21.14L19.88 21.14L19.88 21.14Q18.45 21.14 17.81 20.45L17.81 20.45L17.81 20.45Q17.18 19.75 17.18 18.77L17.18 18.77L17.18 18.77Q17.18 18.21 17.50 17.68L17.50 17.68L17.50 17.68Q17.82 17.14 18.44 16.67L18.44 16.67L22.16 16.67L22.16 16.67Q22.12 16.06 21.74 15.74L21.74 15.74L21.74 15.74Q21.36 15.43 20.79 15.43L20.79 15.43L20.79 15.43Q19.82 15.43 17.96 16.02L17.96 16.02L17.54 15.06L19.46 13.52L19.46 13.52Q20.23 13.26 21.31 13.26L21.31 13.26L21.31 13.26Q23.04 13.26 24.01 14.02L24.01 14.02L24.01 14.02Q24.98 14.78 24.98 16.25L24.98 16.25L24.98 19.39L26.22 19.88ZM20.73 18.83L20.73 18.83Q21.35 18.83 22.16 18.35L22.16 18.35L22.16 17.81L20.03 17.81L20.03 17.81Q19.96 17.93 19.94 18.02L19.94 18.02L19.94 18.02Q19.91 18.12 19.91 18.26L19.91 18.26L19.91 18.26Q19.91 18.52 20.12 18.68L20.12 18.68L20.12 18.68Q20.34 18.83 20.75 18.83L20.75 18.83L20.73 18.83ZM35.39 13.40L35.39 14.39L31.77 21L28.25 24.70L27.16 23.86L27.16 23.86Q28.14 22.62 28.55 21.73L28.55 21.73L28.55 21.73Q28.97 20.85 29.06 19.75L29.06 19.75L27.58 16.13L26.17 15.30L26.17 14.31L29.68 13.13L30.21 15.25L31.64 18.69L33.15 15.86L31.07 14.52L31.63 13.40L35.39 13.40Z"></path></g><!----><!----></svg>